<svg xmlns="http://www.w3.org/2000/svg" viewBox="0 0 260 200" width="260" height="200">
  <!-- CERC Logo - ceRc with interlocking rounded letters -->
  
  <!-- 'c' (left) - dark grey, open to the right -->
  <path d="
    M 68,60
    C 68,36 54,20 34,20
    C 14,20 0,36 0,60
    L 0,140
    C 0,164 14,180 34,180
    C 54,180 68,164 68,140
    L 68,125
    L 48,125
    L 48,140
    C 48,152 43,158 34,158
    C 25,158 20,152 20,140
    L 20,60
    C 20,48 25,42 34,42
    C 43,42 48,48 48,60
    L 48,75
    L 68,75
    Z
  " fill="#555555"/>

  <!-- 'e' - dark grey -->
  <path d="
    M 128,60
    C 128,36 114,20 94,20
    C 74,20 60,36 60,60
    L 60,140
    C 60,164 74,180 94,180
    C 114,180 128,164 128,140
    L 128,125
    L 108,125
    L 108,140
    C 108,152 103,158 94,158
    C 85,158 80,152 80,140
    L 80,108
    L 128,108
    L 128,60
    Z
    M 80,90
    L 80,60
    C 80,48 85,42 94,42
    C 103,42 108,48 108,60
    L 108,90
    Z
  " fill="#555555"/>

  <!-- 'R' - coral/salmon, taller and overlapping -->
  <path d="
    M 130,2
    L 130,120
    L 150,120
    L 150,85
    L 166,85
    L 184,120
    L 206,120
    L 185,81
    C 195,74 202,63 202,48
    L 202,35
    C 202,15 188,2 168,2
    Z
    M 150,20
    L 168,20
    C 177,20 182,26 182,35
    L 182,48
    C 182,57 177,63 168,63
    L 150,63
    Z
  " fill="#E07060"/>

  <!-- 'c' (right) - dark grey, open to the left (mirrored) -->
  <path d="
    M 192,60
    C 192,36 206,20 226,20
    C 246,20 260,36 260,60
    L 260,75
    L 240,75
    L 240,60
    C 240,48 235,42 226,42
    C 217,42 212,48 212,60
    L 212,140
    C 212,152 217,158 226,158
    C 235,158 240,152 240,140
    L 240,125
    L 260,125
    L 260,140
    C 260,164 246,180 226,180
    C 206,180 192,164 192,140
    Z
  " fill="#555555"/>
</svg>
